<svg width="40" height="41" viewBox="0 0 40 41" fill="none" xmlns="http://www.w3.org/2000/svg">
<path d="M0 12.4149C0 10.2998 1.71465 8.58511 3.82979 8.58511C5.94492 8.58511 7.65957 10.2998 7.65957 12.4149C7.65957 14.53 5.94492 16.2447 3.82979 16.2447C1.71465 16.2447 0 14.53 0 12.4149Z" fill="#F35034"/>
<path d="M0 20.5C0 18.3849 1.71465 16.6702 3.82979 16.6702C5.94492 16.6702 7.65957 18.3849 7.65957 20.5C7.65957 22.6151 5.94492 24.3298 3.82979 24.3298C1.71465 24.3298 0 22.6151 0 20.5Z" fill="#F35034"/>
<path d="M0 28.5851C0 26.47 1.71465 24.7553 3.82979 24.7553C5.94492 24.7553 7.65957 26.47 7.65957 28.5851C7.65957 30.7002 5.94492 32.4149 3.82979 32.4149C1.71465 32.4149 0 30.7002 0 28.5851Z" fill="#F35034"/>
<path d="M8.08511 4.32979C8.08511 2.21465 9.79976 0.5 11.9149 0.5C14.03 0.5 15.7447 2.21465 15.7447 4.32979C15.7447 6.44492 14.03 8.15957 11.9149 8.15957C9.79976 8.15957 8.08511 6.44492 8.08511 4.32979Z" fill="#F35034"/>
<path d="M8.08511 12.4149C8.08511 10.2998 9.79976 8.58511 11.9149 8.58511C14.03 8.58511 15.7447 10.2998 15.7447 12.4149C15.7447 14.53 14.03 16.2447 11.9149 16.2447C9.79976 16.2447 8.08511 14.53 8.08511 12.4149Z" fill="#F35034"/>
<path d="M8.08511 20.5C8.08511 18.3849 9.79976 16.6702 11.9149 16.6702C14.03 16.6702 15.7447 18.3849 15.7447 20.5C15.7447 22.6151 14.03 24.3298 11.9149 24.3298C9.79976 24.3298 8.08511 22.6151 8.08511 20.5Z" fill="#F35034"/>
<path d="M8.08511 28.5851C8.08511 26.47 9.79976 24.7553 11.9149 24.7553C14.03 24.7553 15.7447 26.47 15.7447 28.5851C15.7447 30.7002 14.03 32.4149 11.9149 32.4149C9.79976 32.4149 8.08511 30.7002 8.08511 28.5851Z" fill="#F35034"/>
<path d="M8.08511 36.6702C8.08511 34.5551 9.79976 32.8404 11.9149 32.8404C14.03 32.8404 15.7447 34.5551 15.7447 36.6702C15.7447 38.7854 14.03 40.5 11.9149 40.5C9.79976 40.5 8.08511 38.7854 8.08511 36.6702Z" fill="#F35034"/>
<path d="M16.1702 4.32979C16.1702 2.21465 17.8849 0.5 20 0.5C22.1151 0.5 23.8298 2.21465 23.8298 4.32979C23.8298 6.44492 22.1151 8.15957 20 8.15957C17.8849 8.15957 16.1702 6.44492 16.1702 4.32979Z" fill="#F35034"/>
<path d="M16.1702 12.4149C16.1702 10.2998 17.8849 8.58511 20 8.58511C22.1151 8.58511 23.8298 10.2998 23.8298 12.4149C23.8298 14.53 22.1151 16.2447 20 16.2447C17.8849 16.2447 16.1702 14.53 16.1702 12.4149Z" fill="#F35034"/>
<path d="M16.1702 20.5C16.1702 18.3849 17.8849 16.6702 20 16.6702C22.1151 16.6702 23.8298 18.3849 23.8298 20.5C23.8298 22.6151 22.1151 24.3298 20 24.3298C17.8849 24.3298 16.1702 22.6151 16.1702 20.5Z" fill="#F35034"/>
<path d="M16.1702 28.5851C16.1702 26.47 17.8849 24.7553 20 24.7553C22.1151 24.7553 23.8298 26.47 23.8298 28.5851C23.8298 30.7002 22.1151 32.4149 20 32.4149C17.8849 32.4149 16.1702 30.7002 16.1702 28.5851Z" fill="#F35034"/>
<path d="M16.1702 36.6702C16.1702 34.5551 17.8849 32.8404 20 32.8404C22.1151 32.8404 23.8298 34.5551 23.8298 36.6702C23.8298 38.7854 22.1151 40.5 20 40.5C17.8849 40.5 16.1702 38.7854 16.1702 36.6702Z" fill="#F35034"/>
<path d="M24.2553 4.32979C24.2553 2.21465 25.97 0.5 28.0851 0.5C30.2002 0.5 31.9149 2.21465 31.9149 4.32979C31.9149 6.44492 30.2002 8.15957 28.0851 8.15957C25.97 8.15957 24.2553 6.44492 24.2553 4.32979Z" fill="#F35034"/>
<path d="M24.2553 12.4149C24.2553 10.2998 25.97 8.58511 28.0851 8.58511C30.2002 8.58511 31.9149 10.2998 31.9149 12.4149C31.9149 14.53 30.2002 16.2447 28.0851 16.2447C25.97 16.2447 24.2553 14.53 24.2553 12.4149Z" fill="#F35034"/>
<path d="M24.2553 20.5C24.2553 18.3849 25.97 16.6702 28.0851 16.6702C30.2002 16.6702 31.9149 18.3849 31.9149 20.5C31.9149 22.6151 30.2002 24.3298 28.0851 24.3298C25.97 24.3298 24.2553 22.6151 24.2553 20.5Z" fill="#F35034"/>
<path d="M24.2553 28.5851C24.2553 26.47 25.97 24.7553 28.0851 24.7553C30.2002 24.7553 31.9149 26.47 31.9149 28.5851C31.9149 30.7002 30.2002 32.4149 28.0851 32.4149C25.97 32.4149 24.2553 30.7002 24.2553 28.5851Z" fill="#F35034"/>
<path d="M24.2553 36.6702C24.2553 34.5551 25.97 32.8404 28.0851 32.8404C30.2002 32.8404 31.9149 34.5551 31.9149 36.6702C31.9149 38.7854 30.2002 40.5 28.0851 40.5C25.97 40.5 24.2553 38.7854 24.2553 36.6702Z" fill="#F35034"/>
<path d="M32.3404 12.4149C32.3404 10.2998 34.0551 8.58511 36.1702 8.58511C38.2854 8.58511 40 10.2998 40 12.4149C40 14.53 38.2854 16.2447 36.1702 16.2447C34.0551 16.2447 32.3404 14.53 32.3404 12.4149Z" fill="#F35034"/>
<path d="M32.3404 20.5C32.3404 18.3849 34.0551 16.6702 36.1702 16.6702C38.2854 16.6702 40 18.3849 40 20.5C40 22.6151 38.2854 24.3298 36.1702 24.3298C34.0551 24.3298 32.3404 22.6151 32.3404 20.5Z" fill="#F35034"/>
<path d="M32.3404 28.5851C32.3404 26.47 34.0551 24.7553 36.1702 24.7553C38.2854 24.7553 40 26.47 40 28.5851C40 30.7002 38.2854 32.4149 36.1702 32.4149C34.0551 32.4149 32.3404 30.7002 32.3404 28.5851Z" fill="#F35034"/>
</svg>
